<?xml version="1.0" encoding="UTF-8" standalone="no"?>
<svg
   width="36"
   height="44"
   viewBox="0 0 36 44"
   fill="none"
   version="1.1"
   id="svg25"
   sodipodi:docname="announcement_filled_icon.svg"
   xmlns:inkscape="http://www.inkscape.org/namespaces/inkscape"
   xmlns:sodipodi="http://sodipodi.sourceforge.net/DTD/sodipodi-0.dtd"
   xmlns="http://www.w3.org/2000/svg"
   xmlns:svg="http://www.w3.org/2000/svg">
  <sodipodi:namedview
     id="namedview27"
     pagecolor="#ffffff"
     bordercolor="#000000"
     borderopacity="0.25"
     inkscape:showpageshadow="2"
     inkscape:pageopacity="0.0"
     inkscape:pagecheckerboard="0"
     inkscape:deskcolor="#d1d1d1" />
  <g
     clip-path="url(#clip0_14486_45221)"
     id="g18">
    <path
       d="M 30.6191,29.5397 H 5.22906 c -0.24,0 -0.44,-0.2 -0.44,-0.44 v -15.04 c 0,-5.03001 4.09,-9.13001 9.13004,-9.13001 h 8.02 c 5.03,0 9.13,4.09 9.13,9.13001 v 15.04 c 0,0.24 -0.2,0.44 -0.44,0.44 z M 5.66906,28.6597 H 30.1791 v -14.6 c 0,-4.55001 -3.7,-8.24001 -8.24,-8.24001 h -8.02 c -4.55004,0 -8.24004,3.7 -8.24004,8.24001 v 14.6 z"
       fill="#054a97"
       id="path2" />
    <path
       d="M 30.6213,30.0499 H 5.23125 c -0.52,0 -0.95,-0.43 -0.95,-0.95 v -15.04 c 0,-5.30998 4.32,-9.63998 9.63995,-9.63998 h 8.02 c 5.31,0 9.64,4.32 9.64,9.63998 v 15.04 c 0,0.52 -0.43,0.95 -0.95,0.95 z"
       fill="#054a97"
       id="path4" />
    <path
       d="M 34.903,36.4599 H 0.953046 c -0.16,0 -0.31,-0.09 -0.39,-0.23 -0.08,-0.14 -0.07,-0.31 0.01,-0.45 l 4.280004,-6.92 c 0.08,-0.13 0.22,-0.21 0.38,-0.21 H 30.623 c 0.15,0 0.3,0.08 0.38,0.21 l 4.28,6.92 c 0.08,0.14 0.09,0.31 0.01,0.45 -0.08,0.14 -0.23,0.23 -0.39,0.23 z M 1.74305,35.5799 H 34.113 l -3.73,-6.03 H 5.48305 l -3.73,6.03 z"
       fill="#054a97"
       id="path6" />
    <path
       d="M 34.9015,36.9601 H 0.951491 c -0.34,0 -0.66,-0.19 -0.83,-0.49 -0.17,-0.3 -0.16,-0.67 0.02,-0.96 l 4.279999,-6.92 c 0.17,-0.28 0.48,-0.45 0.81,-0.45 H 30.6215 c 0.33,0 0.63,0.17 0.81,0.45 l 4.28,6.92 c 0.18,0.29 0.19,0.66 0.02,0.96 -0.17,0.3 -0.49,0.49 -0.83,0.49 z"
       fill="#054a97"
       id="path8" />
    <path
       d="m 17.9328,42.5901 c -2.37,0 -4.3,-1.93 -4.3,-4.3 0,-0.24 0.2,-0.44 0.44,-0.44 0.24,0 0.44,0.2 0.44,0.44 0,1.88 1.53,3.41 3.41,3.41 1.88,0 3.41,-1.53 3.41,-3.41 0,-0.24 0.2,-0.44 0.44,-0.44 0.24,0 0.44,0.2 0.44,0.44 0,2.37 -1.93,4.3 -4.3,4.3 z"
       fill="#054a97"
       id="path10" />
    <path
       d="m 17.9328,43.1001 c -2.65,0 -4.8,-2.16 -4.8,-4.8 0,-0.52 0.43,-0.95 0.95,-0.95 0.52,0 0.95,0.43 0.95,0.95 0,1.6 1.3,2.9 2.9,2.9 1.6,0 2.9,-1.3 2.9,-2.9 0,-0.52 0.43,-0.95 0.95,-0.95 0.52,0 0.95,0.43 0.95,0.95 0,2.65 -2.16,4.8 -4.81,4.8 z"
       fill="#054a97"
       id="path12" />
    <path
       d="m 17.9244,5.80977 c -0.24,0 -0.44,-0.2 -0.44,-0.44 V 0.949766 c 0,-0.24 0.2,-0.44 0.44,-0.44 0.24,0 0.44,0.2 0.44,0.44 V 5.36977 c 0,0.24 -0.2,0.44 -0.44,0.44 z"
       fill="#054a97"
       id="path14" />
    <path
       d="m 17.9266,6.32 c -0.52,0 -0.95,-0.43 -0.95,-0.95 V 0.95 c 0,-0.52 0.43,-0.95 0.95,-0.95 0.52,0 0.95,0.43 0.95,0.95 v 4.42 c 0,0.52 -0.43,0.95 -0.95,0.95 z"
       fill="#054a97"
       id="path16" />
  </g>
  <defs
     id="defs23">
    <clipPath
       id="clip0_14486_45221">
      <rect
         width="35.85"
         height="43.1"
         fill="white"
         id="rect20" />
    </clipPath>
  </defs>
</svg>
