<svg width="35" height="35" viewBox="0 0 35 35" fill="none" xmlns="http://www.w3.org/2000/svg">
<g clip-path="url(#clip0_14486_45273)">
<path d="M5.25262 12.5901C5.35262 12.1501 5.07262 11.7101 4.63262 11.6101C4.19262 11.5101 3.75262 11.7901 3.65262 12.2301C3.32262 13.6601 3.28262 15.1301 3.51262 16.5801C4.00262 19.5801 5.62262 22.2201 8.09262 24.0001C8.23262 24.1001 8.40262 24.1601 8.57262 24.1601C8.83262 24.1601 9.08262 24.0301 9.23262 23.8201C9.49262 23.4501 9.41262 22.9401 9.04262 22.6801C6.93262 21.1601 5.54262 18.9001 5.12262 16.3301C4.92262 15.0801 4.96262 13.8301 5.24262 12.6101L5.25262 12.5901Z" fill="white"/>
<path d="M34.3308 32.8098L25.8408 24.4798C30.9708 18.6398 30.7108 9.7298 25.1008 4.2198C22.2908 1.4598 18.5508 -0.0401967 14.6208 -0.000196727C10.6708 0.0398033 6.98078 1.6098 4.22078 4.4198C1.46078 7.2298 -0.0392202 10.9498 0.000779835 14.8898C0.0407798 18.8298 1.61078 22.5198 4.42078 25.2898C7.20078 28.0198 10.8708 29.5198 14.7608 29.5198H14.9008C18.5708 29.4798 22.0108 28.1098 24.6908 25.6498L33.1808 33.9798C33.3308 34.1298 33.5408 34.2098 33.7508 34.2098C33.9608 34.2098 34.1808 34.1198 34.3308 33.9598C34.4808 33.7998 34.5708 33.5998 34.5608 33.3798C34.5608 33.1598 34.4708 32.9598 34.3108 32.7998L34.3308 32.8098ZM14.7608 1.6298C18.2208 1.6298 21.4808 2.9598 23.9508 5.3898C29.1108 10.4598 29.1908 18.7798 24.1208 23.9498C21.6608 26.4498 18.3808 27.8498 14.8808 27.8798C11.3908 27.9198 8.07078 26.5798 5.56078 24.1198C3.06078 21.6698 1.66078 18.3798 1.63078 14.8798C1.60078 11.3798 2.93078 8.0698 5.39078 5.5698C7.85078 3.0698 11.1308 1.6698 14.6308 1.6398H14.7608V1.6298Z" fill="white"/>
</g>
<defs>
<clipPath id="clip0_14486_45273">
<rect width="34.57" height="34.21" fill="white"/>
</clipPath>
</defs>
</svg>
