<svg width="35" height="35" viewBox="0 0 35 35" fill="none" xmlns="http://www.w3.org/2000/svg">
<g clip-path="url(#clip0_14486_45277)">
<path fill-rule="evenodd" clip-rule="evenodd" d="M25.8408 24.4798L34.3308 32.8098L34.3108 32.7998C34.4708 32.9598 34.5608 33.1598 34.5608 33.3798C34.5708 33.5998 34.4808 33.7998 34.3308 33.9598C34.1808 34.1198 33.9608 34.2098 33.7508 34.2098C33.5408 34.2098 33.3308 34.1298 33.1808 33.9798L24.6908 25.6498C22.0108 28.1098 18.5708 29.4798 14.9008 29.5198H14.7608C10.8708 29.5198 7.20078 28.0198 4.42078 25.2898C1.61078 22.5198 0.0407798 18.8298 0.000779835 14.8898C-0.0392202 10.9498 1.46078 7.2298 4.22078 4.4198C6.98078 1.6098 10.6708 0.0398033 14.6208 -0.000196727C18.5508 -0.0401967 22.2908 1.4598 25.1008 4.2198C30.7108 9.7298 30.9708 18.6398 25.8408 24.4798ZM4.63262 11.6101C5.07262 11.7101 5.35262 12.1501 5.25262 12.5901L5.24262 12.6101C4.96262 13.8301 4.92262 15.0801 5.12262 16.3301C5.54262 18.9001 6.93262 21.1601 9.04262 22.6801C9.41262 22.9401 9.49262 23.4501 9.23262 23.8201C9.08262 24.0301 8.83262 24.1601 8.57262 24.1601C8.40262 24.1601 8.23262 24.1001 8.09262 24.0001C5.62262 22.2201 4.00262 19.5801 3.51262 16.5801C3.28262 15.1301 3.32262 13.6601 3.65262 12.2301C3.75262 11.7901 4.19262 11.5101 4.63262 11.6101Z" fill="white"/>
</g>
<defs>
<clipPath id="clip0_14486_45277">
<rect width="34.57" height="34.21" fill="white"/>
</clipPath>
</defs>
</svg>
