<svg width="253" height="34" viewBox="0 0 253 34" fill="none" xmlns="http://www.w3.org/2000/svg">
<path d="M10.2969 26.3665L10.3533 26.2741L10.5601 25.9216L10.9959 26.1424C11.0364 26.1624 11.0591 26.2119 11.0673 26.2748C11.0777 26.4621 10.934 26.7237 10.7278 26.5986C10.5684 26.521 10.4694 26.4621 10.2962 26.3671M9.83917 26.2748L9.72577 26.4735C10.0275 26.6608 10.3533 26.8194 10.6653 26.9846C11.033 27.1833 11.5533 26.703 11.5141 26.2755C11.5086 26.1986 11.4859 26.1303 11.4405 26.0581L12.1911 25.5255C12.0515 25.4627 11.9416 25.4045 11.7746 25.3362L11.1134 25.8038L10.7512 25.6165L11.1375 24.9897C10.9883 24.8974 10.8976 24.8425 10.7237 24.7428L9.83848 26.2755L9.83917 26.2748ZM19.7883 6.19027L20.4728 4.28431C20.6069 4.33247 20.7484 4.36793 20.8838 4.4268L20.2192 6.32273C20.0378 6.26252 19.9533 6.2371 19.789 6.19027M17.0481 4.39001L16.8893 4.77602L16.7251 5.19414L16.5842 4.77602L16.4474 4.36592L17.0488 4.39068L17.0481 4.39001ZM17.3196 4.77602L17.7663 3.72101C17.6206 3.71298 17.4832 3.69894 17.3533 3.68422L17.2151 4.02407L16.3182 4.00199L16.2151 3.64408C16.0728 3.65478 15.9388 3.65947 15.7952 3.65947L16.1849 4.77602L16.4584 5.6243L16.4728 5.65039L16.9278 5.67247L16.9505 5.61761L17.3189 4.77669L17.3196 4.77602ZM19.5684 27.0361L20.0323 26.893C20.1574 26.8568 20.3258 27.0515 20.3258 27.2168C20.3258 27.2984 20.2983 27.3659 20.1862 27.3934C20.0151 27.4543 19.8983 27.487 19.712 27.5325L19.6151 27.2168L19.5677 27.0361H19.5684ZM19.2852 25.9825C19.1189 26.0313 18.9959 26.0487 18.8137 26.1029L19.1512 27.2168L19.3959 28.0109C19.7505 27.9279 20.0866 27.8168 20.4234 27.7085C20.6151 27.6523 20.7168 27.4415 20.7368 27.2161C20.7484 26.9144 20.5945 26.5839 20.279 26.5157L20.4007 25.6159C20.2536 25.6727 20.145 25.7169 19.9807 25.7811L19.8735 26.5652L19.4783 26.6849L19.2859 25.9811L19.2852 25.9825ZM12.9897 5.73536C12.9753 5.79423 12.9533 5.83838 12.8811 5.86782L12.3622 6.05848L12.2454 5.73469L12.2034 5.61694L12.2 5.60891L12.6756 5.441C12.8021 5.38212 12.9285 5.49585 12.9739 5.61761C12.9897 5.65039 13.0034 5.69455 12.9897 5.73536ZM13.3773 5.73536V5.62497C13.3464 5.35603 13.1581 5.08375 12.8564 5.05097L12.9244 4.11304C12.7842 4.14114 12.624 4.18797 12.4749 4.25152L12.4598 5.13326L12.0522 5.30452L11.721 4.52247C11.5876 4.56462 11.4522 4.60877 11.3223 4.67032L11.7409 5.61828L11.7917 5.73602L12.132 6.51808L13.0605 6.16953C13.2673 6.09862 13.3608 5.91732 13.3773 5.73602M19.2969 6.02168C18.6948 5.89391 18.2302 5.78553 17.6344 5.69522L17.6887 5.35603C17.9086 5.39283 18.1113 5.41959 18.345 5.44434L18.646 3.81735L19.09 3.8983L18.7306 5.52462C18.9574 5.57613 19.1691 5.63501 19.3959 5.68384L19.2976 6.02102L19.2969 6.02168ZM21.5601 25.0552L22.0082 25.8948L23.2151 26.4421C23.088 26.5304 22.9498 26.5899 22.8247 26.6735L21.9917 26.3029L21.8392 27.1846C21.6639 27.2616 21.5594 27.2997 21.3794 27.3666L21.6199 26.0888L21.1725 25.262L21.5594 25.0552H21.5601ZM26.0914 24.5388C25.9003 24.7689 25.5828 24.7355 25.4928 24.5769L24.088 23.1994C23.8818 22.9941 23.901 22.687 24.1134 22.5378C26.235 20.2499 27.1237 17.4053 26.4261 13.8777C26.4137 13.6509 26.5622 13.4689 26.7471 13.4134L28.6914 12.8628C28.9498 12.7912 29.1155 12.9458 29.1711 13.1612C30.1697 17.4996 28.8014 21.7658 26.0921 24.5394M28.3409 11.85L26.3924 12.4989C26.2907 12.5377 26.0268 12.5377 25.8886 12.2012C24.3161 8.53576 20.6584 6.02302 16.4227 6.02302C12.1869 6.02302 8.45704 8.5953 6.95257 12.2574C6.84055 12.5377 6.56769 12.5377 6.46391 12.4989L4.52921 11.85C4.31959 11.7777 4.19244 11.5964 4.30378 11.3368C6.20137 6.61374 10.9299 3.28215 16.4227 3.28215C21.9155 3.28215 26.6618 6.63582 28.5677 11.3542C28.6694 11.6011 28.5505 11.7777 28.3409 11.85ZM4.21168 12.8635L6.15326 13.4141C6.3347 13.4689 6.48385 13.6516 6.46941 13.8784C5.77044 17.4006 6.65773 20.2505 8.778 22.5385C8.99175 22.6877 9.01374 22.9947 8.81031 23.2001L7.39931 24.5829C7.26254 24.7368 7.01306 24.7368 6.79931 24.5247C4.09484 21.7504 2.72852 17.501 3.73058 13.1558C3.78625 12.9471 3.95601 12.7926 4.21168 12.8642M23.6818 21.6614C23.6873 21.7451 23.6364 21.8501 23.5141 21.9658C21.9601 23.5694 20.3643 24.4632 18.1766 24.9663C18.0543 24.999 17.9093 25.0298 17.8165 24.9442C17.7175 24.8713 17.69 24.7234 17.7106 24.5033L18.0694 19.5735C18.0804 19.3862 18.1677 19.237 18.2962 19.1601C18.4371 19.0871 18.6041 19.0999 18.7787 19.1821L23.3395 21.3256C23.4866 21.3932 23.6522 21.4694 23.6825 21.6186C23.6825 21.6293 23.688 21.6407 23.6825 21.6621M24.6055 12.8535C24.7416 12.7665 24.899 12.6655 25.0412 12.7103C25.1368 12.7424 25.2234 12.8421 25.2742 13.0307C25.9141 15.1361 25.9141 16.9336 25.2742 19.0169C25.2357 19.1487 25.1746 19.2811 25.0591 19.3313C24.9484 19.3695 24.8041 19.3246 24.6007 19.1882L20.4172 16.4212C20.2557 16.3162 20.1732 16.1723 20.1732 16.0231C20.1732 15.874 20.2557 15.7268 20.4172 15.6271L24.6062 12.8535H24.6055ZM17.8041 7.12285C17.8797 7.06465 18.0082 7.04591 18.2027 7.0981C20.3794 7.60185 21.9739 8.49964 23.5299 10.0872C23.6206 10.1962 23.723 10.3019 23.6948 10.419C23.666 10.5374 23.5643 10.6384 23.3533 10.7361L18.7917 12.8876C18.6179 12.9699 18.4515 12.9699 18.3106 12.8983C18.178 12.8153 18.0955 12.6762 18.0825 12.4795L17.7141 7.56706C17.712 7.4065 17.6914 7.22186 17.8048 7.12285M16.424 12.816C18.2254 12.816 19.6907 14.2389 19.6907 15.9917C19.6907 17.7445 18.2261 19.1668 16.424 19.1775C14.6247 19.1775 13.1608 17.7445 13.1608 15.9917C13.1608 14.2389 14.6254 12.816 16.424 12.816ZM9.24948 10.3394C9.24948 10.2537 9.3079 10.148 9.41718 10.0383C10.989 8.43207 12.5759 7.53963 14.756 7.03989C14.8976 6.99909 15.0337 6.97701 15.1299 7.05461C15.2289 7.12352 15.2577 7.2707 15.2412 7.50685C15.2412 7.50953 14.8694 12.4353 14.8694 12.4353C14.8536 12.618 14.7821 12.7658 14.6481 12.8381C14.512 12.915 14.3423 12.915 14.1608 12.8334L9.60893 10.6779C9.44948 10.6043 9.27972 10.5233 9.25429 10.3788C9.25429 10.3688 9.24879 10.3507 9.24879 10.3394M9.18075 21.5858C9.20137 21.432 9.37457 21.3604 9.52852 21.2881L14.0818 19.138C14.2632 19.0497 14.4316 19.0497 14.5698 19.1219C14.6969 19.2042 14.7814 19.3427 14.7924 19.5347L15.1594 24.4511C15.1801 24.6906 15.1464 24.8271 15.057 24.9C14.9608 24.9816 14.8186 24.9596 14.6825 24.9328C12.4976 24.4237 10.91 23.5252 9.33951 21.9324C9.21237 21.7892 9.15532 21.6788 9.18075 21.5845M8.26735 19.1594C8.11958 19.2524 7.96082 19.3581 7.83092 19.3019C7.7244 19.2691 7.64879 19.1594 7.59312 18.9888C6.95945 16.8721 6.95945 15.0805 7.59312 12.9959C7.63642 12.8588 7.68316 12.7217 7.81168 12.6875C7.91546 12.6441 8.06804 12.6875 8.26666 12.8207L12.4474 15.5937C12.6027 15.6933 12.6962 15.8365 12.6962 15.9843C12.6962 16.1436 12.6027 16.2774 12.4474 16.3871L8.26666 19.1594H8.26735ZM8.17594 25.3115L9.52852 23.8497C9.71477 23.653 9.92508 23.6751 10.1972 23.8845C11.9017 25.1857 14.0928 25.957 16.4234 25.957C18.7539 25.957 20.9484 25.1897 22.6708 23.8845C22.9402 23.6905 23.1443 23.653 23.3395 23.8497L24.6914 25.3115C24.8426 25.4727 24.8426 25.6968 24.5484 25.9356C22.2866 27.6543 19.4907 28.714 16.4179 28.714C13.345 28.714 10.5265 27.6543 8.30378 25.9289C8.01237 25.6975 8.02474 25.4727 8.17525 25.3115M32.8715 15.979C32.8715 15.7917 32.8632 15.6044 32.8419 15.4552L32.8364 15.4164L32.7924 15.3936C32.0935 14.9869 31.1897 14.7554 30.2838 14.7333C30.2612 14.6229 30.1649 13.8235 30.1478 13.7131C30.9917 13.4803 31.8103 13.0294 32.3835 12.4547L32.4062 12.4173V12.3791C32.3608 12.0694 32.2474 11.6499 32.1196 11.3736L32.1051 11.3322L32.0646 11.3261C31.2735 11.1047 30.3395 11.1121 29.4756 11.3188C29.4344 11.2151 29.1161 10.4758 29.0845 10.3668C29.8398 9.90319 30.5093 9.2643 30.8838 8.57992L30.9045 8.54045L30.8935 8.50231C30.7752 8.23137 30.5546 7.836 30.3553 7.59984L30.334 7.56505H30.2838C29.4763 7.55903 28.5732 7.7905 27.7862 8.21532C27.7141 8.12233 27.1883 7.44865 27.1182 7.36034C27.7368 6.73349 28.2075 5.94475 28.3979 5.16671L28.411 5.12858L28.3862 5.09713C28.2069 4.85897 27.8763 4.54321 27.635 4.35589L27.6069 4.33381L27.5478 4.34251C26.7704 4.54321 25.9478 5.00414 25.3093 5.60289C25.2151 5.53265 24.5629 5.03693 24.4673 4.96401C24.8818 4.2241 25.1354 3.36645 25.1354 2.59309V2.48739L25.09 2.45795C24.8474 2.26863 24.4481 2.04585 24.1622 1.93078L24.134 1.91741L24.088 1.93681C23.3862 2.33218 22.7168 2.97575 22.2591 3.72168C22.1471 3.67351 21.3519 3.34169 21.244 3.29486C21.3512 2.88544 21.4179 2.44725 21.4302 2.02578C21.4302 1.59227 21.3519 1.16211 21.244 0.771418L21.2385 0.73061L21.1959 0.708532C20.9306 0.600155 20.4825 0.494454 20.1704 0.440935L20.123 0.434914L20.0955 0.466357C19.4942 1.02497 19.0309 1.81772 18.789 2.64594C18.6818 2.64326 17.8605 2.53154 17.7416 2.5108C17.7285 1.6391 17.4832 0.7567 17.0584 0.0736573L17.035 0.0382007L16.9883 0.0315104C16.701 -0.0106362 16.2433 -0.0106362 15.9326 0.0315104L15.8948 0.0382007L15.8673 0.0736573C15.4536 0.757369 15.2076 1.6391 15.1904 2.5108C15.066 2.52084 14.1986 2.64326 14.0797 2.64594C13.8426 1.82374 13.3773 1.03634 12.7897 0.47037L12.7581 0.440935L12.7106 0.448295C12.3911 0.494455 11.9656 0.613536 11.6825 0.727934L11.6488 0.745996L11.635 0.778776C11.5148 1.1688 11.4529 1.60365 11.4529 2.03649C11.4529 2.46933 11.5148 2.88544 11.6261 3.29486C11.5155 3.34236 10.7649 3.63806 10.657 3.68489C10.1959 2.93026 9.52714 2.27331 8.81855 1.89198L8.78075 1.87258L8.73608 1.88463C8.44467 2.0104 8.05773 2.22514 7.81031 2.40711L7.77938 2.43788V2.52017C7.77938 3.30356 8.02405 4.16523 8.44398 4.91985C8.34982 4.9901 7.65086 5.5079 7.55532 5.5768C6.91477 4.97538 6.10034 4.52247 5.3134 4.32511L5.2701 4.31374L5.22749 4.34184C4.98625 4.53183 4.67835 4.83489 4.48247 5.07372L4.45704 5.11654L4.46598 5.15734C4.67904 5.93204 5.14845 6.71944 5.76288 7.33291C5.69347 7.42523 5.16288 8.09356 5.08797 8.19725C4.3079 7.76709 3.39725 7.52491 2.59038 7.54231H2.54639L2.51821 7.5684C2.3299 7.81124 2.10378 8.20327 1.9835 8.47489L1.96426 8.5177L1.9835 8.55182C2.38969 9.24624 3.05498 9.88914 3.81374 10.3354C3.76426 10.4457 3.43986 11.191 3.38625 11.2947C2.5244 11.0853 1.58419 11.0806 0.795189 11.2947L0.755326 11.3054L0.73402 11.3402C0.626117 11.5991 0.508591 12.0353 0.461855 12.3437L0.451546 12.3925L0.479725 12.4306C1.05223 12.9986 1.86117 13.4462 2.72577 13.6984C2.71615 13.8195 2.58969 14.6631 2.57457 14.7795C1.67698 14.7909 0.769072 15.0176 0.0646048 15.4251L0.028866 15.4471L0.0254295 15.4966C0.00481099 15.6351 0 15.8225 0 16.0145C0 16.2065 0.00481099 16.3791 0.0254295 16.5329L0.028866 16.5771L0.0646048 16.5992C0.769072 17.0019 1.67766 17.2387 2.57457 17.2494C2.59588 17.3658 2.70309 18.1867 2.71615 18.3017C1.86185 18.5392 1.04673 18.9915 0.468041 19.5595L0.443986 19.5869L0.451546 19.631C0.490034 19.9508 0.610996 20.3696 0.73402 20.6345L0.745704 20.6733L0.789003 20.684C1.56701 20.9088 2.51065 20.9041 3.37732 20.6947C3.42612 20.7937 3.7402 21.5383 3.79038 21.6541C3.02612 22.101 2.35326 22.7452 1.95395 23.4376L1.93471 23.4824L1.95395 23.5219C2.07835 23.8002 2.30515 24.1768 2.48316 24.4117L2.51065 24.4478H2.55876C3.37801 24.4598 4.28247 24.2177 5.0591 23.7942C5.13196 23.8825 5.6646 24.5803 5.73402 24.6746C5.11684 25.2981 4.65017 26.0855 4.4488 26.8629L4.44124 26.8956L4.45704 26.9284C4.65429 27.1713 4.98144 27.4857 5.22268 27.667L5.2591 27.6891L5.29622 27.6851C6.10034 27.485 6.91134 27.0201 7.54226 26.4213C7.63505 26.4922 8.26529 26.9666 8.36151 27.0348C7.92577 27.7774 7.68178 28.6377 7.68178 29.4077V29.5248L7.72302 29.5482C7.95945 29.7315 8.36151 29.9543 8.64673 30.0667L8.67766 30.0888L8.72439 30.0667C9.42886 29.6793 10.0928 29.0304 10.5553 28.2851C10.6667 28.3246 11.4873 28.6758 11.6 28.7213C11.4921 29.1301 11.4241 29.5623 11.4309 29.9897C11.4309 30.4279 11.4866 30.8494 11.6069 31.2374L11.6124 31.2829L11.6543 31.2963C11.921 31.4033 12.3622 31.5204 12.6763 31.5666L12.723 31.5712L12.7588 31.5438C13.3471 30.9852 13.8124 30.1911 14.0591 29.3542C14.1821 29.3649 15.0447 29.4719 15.1601 29.494C15.1787 30.3557 15.4206 31.2374 15.846 31.9225L15.8625 31.9573L15.9079 31.97C16.2165 32.0068 16.6722 32.0068 16.9725 31.97L17.0124 31.9573L17.0371 31.9225C17.4625 31.2374 17.7106 30.3557 17.7106 29.5007C17.8392 29.4719 18.6832 29.3649 18.8034 29.3542C19.0543 30.1918 19.5182 30.9819 20.11 31.5365L20.1374 31.5666L20.1759 31.5552C20.4969 31.5211 20.9319 31.4033 21.211 31.2829L21.2447 31.2709L21.2584 31.224C21.3807 30.8387 21.4378 30.4219 21.4378 29.9891C21.4302 29.5576 21.3663 29.1254 21.2584 28.7106C21.3663 28.6665 22.1856 28.334 22.3003 28.2851C22.7574 29.0304 23.4089 29.6733 24.121 30.0667L24.1622 30.0888L24.2062 30.0667C24.4859 29.9523 24.8811 29.7315 25.1237 29.5442L25.1588 29.5248V29.4164C25.1588 28.6303 24.9093 27.7707 24.4866 27.0355C24.5794 26.9672 25.2557 26.4514 25.3574 26.3738C25.9959 26.9799 26.8069 27.4409 27.6062 27.6309L27.6419 27.6516L27.679 27.6128C27.9175 27.4415 28.2433 27.1131 28.4275 26.8782L28.4598 26.8415L28.4474 26.8027C28.2433 26.0246 27.7622 25.2325 27.1457 24.6184C27.2185 24.5221 27.7278 23.8671 27.8075 23.7728C28.6041 24.1916 29.5017 24.4271 30.3168 24.4123H30.3546L30.3807 24.3796C30.5801 24.1307 30.8075 23.7514 30.9155 23.4864L30.9436 23.4383L30.9155 23.3981C30.512 22.7131 29.8453 22.0735 29.0831 21.6213C29.1313 21.5109 29.4385 20.7663 29.499 20.6566C30.3539 20.8713 31.2948 20.8767 32.0763 20.6566L32.1216 20.6513L32.1388 20.6071C32.2474 20.3422 32.3752 19.9127 32.4172 19.5983L32.4234 19.5601L32.3897 19.532C31.8192 18.954 31.002 18.5018 30.1464 18.2643C30.1636 18.1485 30.2701 17.333 30.2914 17.2173C31.1924 17.2012 32.0921 16.9684 32.791 16.5617L32.835 16.5396L32.8405 16.4955C32.8618 16.3463 32.8701 16.169 32.8701 15.977M23.6632 8.42872L24.5189 7.53094L23.0804 7.9437C22.9615 7.85205 22.8818 7.82262 22.778 7.73431L24.0254 6.09795C24.134 6.17689 24.2447 6.27925 24.3436 6.35886L23.5849 7.34429L25.0371 6.91881C25.1354 7.00243 25.2777 7.09809 25.3766 7.21784L23.9292 8.70703C23.8508 8.62742 23.7636 8.51837 23.6632 8.42872ZM22.6687 6.0364C22.6687 6.15415 22.6378 6.26319 22.5794 6.36689C22.4076 6.67529 22.0007 6.77631 21.6825 6.59969C21.4598 6.48396 21.3464 6.26252 21.3464 6.03573C21.3512 5.93204 21.3794 5.81497 21.4433 5.71595C21.4598 5.68317 21.4825 5.64972 21.5148 5.61694C21.712 5.38681 22.0639 5.33262 22.3326 5.48448C22.4076 5.52395 22.4673 5.56811 22.5141 5.61694C22.6137 5.73469 22.6694 5.89257 22.6694 6.03573M22.9038 6.53347C22.9904 6.38896 23.0344 6.21235 23.0412 6.03573C23.0412 5.89524 23.0103 5.75543 22.9512 5.6243C22.855 5.441 22.7134 5.27107 22.5148 5.16002C22.033 4.88439 21.4048 5.04964 21.1127 5.53131C21.1031 5.56208 21.0887 5.59018 21.0701 5.6243C21.0117 5.75543 20.9828 5.89524 20.9697 6.03573C20.9828 6.39164 21.1608 6.71944 21.4893 6.90275C21.9807 7.17235 22.6144 7.01246 22.9038 6.5328M25.0673 9.21279L25.3093 8.83547L25.5319 8.46084L25.8344 8.83547L25.9127 8.93114L25.068 9.21279H25.0673ZM24.8302 9.67305L26.89 9.01142C26.8405 8.95255 26.8027 8.89635 26.7594 8.8348C26.7216 8.79065 26.6804 8.7465 26.6522 8.68696L26.29 8.81273L25.7292 8.12902L25.934 7.81727C25.8502 7.72427 25.7581 7.62192 25.6502 7.52291L24.835 8.8348L24.5333 9.31983L24.8316 9.67238L24.8302 9.67305ZM27.1106 9.96674L25.5993 10.7769L25.4069 10.4397L27.2185 9.45229L27.9175 10.6725L27.6062 10.8331L27.1113 9.96674H27.1106ZM15.1574 5.71528L15.0082 4.48835L14.4027 5.83236C14.2612 5.85912 14.1732 5.89458 14.0289 5.91532L13.556 3.93576C13.7031 3.89629 13.8426 3.88157 13.9931 3.85749L14.2495 5.07238L14.8625 3.72034C15.0014 3.69827 15.1574 3.65411 15.3203 3.6588L15.5471 5.70458C15.4289 5.71194 15.2866 5.69388 15.1581 5.71528M15.0893 27.9299L15.2708 26.2889L15.7127 26.333L15.5402 27.9607L16.2096 28.0035L16.1862 28.3688C15.4344 28.3246 15.1285 28.2992 14.3876 28.1908L14.4378 27.8429L15.09 27.9299H15.0893ZM17.1388 27.0348C17.3643 27.0234 17.5725 27.002 17.7835 26.9686L17.6728 27.3914L17.5354 27.8215L17.3258 27.3914L17.1395 27.0348H17.1388ZM16.7959 26.3497C16.624 26.3517 16.545 26.3517 16.3746 26.3517L16.8893 27.392L17.3539 28.334L17.8158 28.2851L18.0563 27.392L18.3931 26.1892C18.2371 26.218 18.1155 26.24 17.9704 26.246L17.8509 26.6274C17.5464 26.6715 17.2694 26.6849 16.989 26.697L16.7952 26.3497H16.7959ZM12.51 26.8502C12.5388 26.4929 12.8632 26.2307 13.2158 26.2634C13.5636 26.2962 13.824 26.5652 13.824 26.907C13.835 26.9231 13.824 26.9451 13.824 26.9672C13.7952 27.3258 13.4763 27.578 13.1106 27.5426C12.7594 27.5191 12.4969 27.2489 12.51 26.907V26.8502ZM12.1326 26.8147V26.907C12.1223 27.4255 12.5306 27.851 13.0646 27.8951C13.6344 27.95 14.1395 27.5426 14.1856 26.9893V26.9063C14.1856 26.3885 13.7849 25.947 13.2378 25.8975C12.6873 25.852 12.1808 26.2547 12.1326 26.8147ZM16.4591 14.0697C17.5347 14.0697 18.4172 14.9293 18.4172 15.9763C18.4172 16.8473 17.7952 17.602 16.9395 17.8114C16.9278 17.895 16.9058 18.2917 16.9058 18.2917H15.9189C15.9189 18.2917 15.8962 17.8615 15.8866 17.7732C15.0673 17.5311 14.5148 16.8032 14.5148 15.9763C14.5148 14.9293 15.3979 14.0697 16.4598 14.0697M16.4227 13.1251C14.8014 13.1251 13.4804 14.4162 13.4804 15.987C13.4804 17.5578 14.8014 18.8583 16.4227 18.8583C18.044 18.8583 19.3629 17.5685 19.3629 15.987C19.3629 14.4055 18.0474 13.1251 16.4227 13.1251ZM10.6275 6.88134C10.9086 6.73149 11.1814 6.57762 11.4873 6.43579L11.6715 6.73216C11.2488 6.9469 10.8474 7.19042 10.4914 7.43259L9.3189 5.75676C9.76426 5.47043 10.1691 5.2316 10.6268 4.97471L10.8137 5.27107L9.86872 5.81563L10.1869 6.24847L10.8137 5.88187L10.9966 6.16819C10.7966 6.27858 10.5869 6.39966 10.3663 6.53213L10.6268 6.88134H10.6275ZM8.28316 9.36532L7.31958 8.55249L7.81099 9.94132C7.72371 10.0617 7.68247 10.144 7.59244 10.2551L5.86529 9.11378C5.94295 9.00205 6.03849 8.89836 6.12027 8.78129L7.15876 9.48239L6.67147 8.08219C6.75464 7.9892 6.84055 7.84737 6.95945 7.75639L8.55738 9.08701C8.46872 9.17867 8.36288 9.26296 8.28385 9.36599M7.14364 10.9783L5.36357 9.96875C5.42818 9.84766 5.49828 9.70784 5.57663 9.58943L7.3567 10.6009C7.2701 10.7555 7.21924 10.8351 7.14364 10.9783ZM9.33951 7.82998L8.24261 6.56558L7.90309 6.85191L9.03573 8.08152C8.85635 8.24274 8.72027 8.38658 8.54501 8.53844L8.79793 8.78731C9.23024 8.38658 9.60962 8.08152 10.0852 7.71156L9.86598 7.43594C9.69209 7.5684 9.51477 7.69685 9.33951 7.82931" fill="#E3BE1B"/>
<path d="M129.96 7.74282C128.092 7.85149 126.248 8.89048 125.11 9.67634V8.56314C125.11 8.18015 124.784 7.87534 124.399 7.87534H121.566C121.181 7.87534 120.865 8.18015 120.865 8.56314V25.1816C120.865 25.558 121.181 25.8602 121.566 25.8602H124.399C124.784 25.8602 125.11 25.5567 125.11 25.1816V13.6958C125.739 13.1723 127.721 11.7411 130.072 11.5436C130.433 11.5118 130.715 11.2057 130.715 10.8571V8.42134C130.715 8.23713 130.635 8.0516 130.489 7.931C130.354 7.79053 130.153 7.72294 129.96 7.74414M107.888 18.0744C106.229 18.2268 105.44 18.961 105.44 20.379C105.44 21.2523 105.684 22.7286 107.333 22.7286C109.292 22.7286 111.948 22.017 111.979 21.9971V17.8663L107.889 18.0731L107.888 18.0744ZM116.217 13.5328V25.4573C116.217 25.6548 116.126 25.8416 115.973 25.9728C115.816 26.104 115.609 26.1636 115.416 26.1345C113.975 25.9384 113.289 25.5024 112.609 24.9974C112.577 25.008 109.399 26.2538 106.56 26.2538C103.127 26.2538 101.165 24.1572 101.165 20.489C101.165 16.8207 102.964 15.3325 107.373 15.0157L111.979 14.6566V13.5646C111.979 12.1983 111.138 11.4124 109.675 11.4124C107.657 11.4124 104.781 11.6417 103.245 11.7729C103.055 11.7941 102.857 11.7291 102.712 11.6085C102.568 11.4893 102.484 11.3024 102.47 11.1182L102.38 8.84674C102.372 8.4982 102.622 8.19207 102.974 8.13774C104.347 7.92968 107.761 7.44861 109.899 7.44861C114.206 7.44861 116.217 9.38081 116.217 13.5315M57.3887 4.95982H55.8424C54.1129 4.95982 53.1266 5.08969 52.6294 5.17848V12.2857C53.4531 12.3414 55.0432 12.4289 57.1866 12.4063C59.946 12.3732 61.6631 10.9539 61.6631 8.69567C61.6631 6.89201 60.5402 4.95982 57.3887 4.95982ZM66.3009 24.9033C66.3924 25.1167 66.376 25.3566 66.249 25.554C66.1137 25.7502 65.8979 25.8615 65.6561 25.8615H62.3707C62.0934 25.8615 61.8366 25.6998 61.7301 25.4493L57.5199 16.2734C55.4257 16.2615 53.6075 16.1422 52.6294 16.0865V25.1816C52.6294 25.558 52.3125 25.8602 51.9273 25.8602H48.9889C48.5954 25.8602 48.2812 25.5567 48.2812 25.1816V2.13573C48.2812 1.78587 48.5517 1.49696 48.9069 1.45456C52.6799 1.04108 55.6962 1 56.8164 1C57.1989 1 57.4065 1.0053 57.4065 1.0053C64.6425 1.0053 66.1588 5.14535 66.1588 8.61615C66.1588 11.5211 64.7327 13.6176 61.7984 15.0369L66.3009 24.902V24.9033ZM148.801 8.14834C148.666 7.97473 148.464 7.87667 148.248 7.87667H145.494C145.177 7.87667 144.906 8.08473 144.816 8.38953L141.131 21.8646H140.855L137.162 8.38953C137.078 8.08605 136.802 7.87667 136.477 7.87667H133.74C133.515 7.87667 133.313 7.97473 133.178 8.14834C133.045 8.31135 132.997 8.53001 133.055 8.72615L137.117 23.8392C137.319 24.5932 138.03 25.8602 139.442 25.8602H140.225C140.158 26.1133 140.088 26.3836 140.005 26.6156L139.976 26.7322C139.751 27.4306 139.419 28.4815 137.422 28.4815L133.91 28.2734C133.708 28.2602 133.515 28.3278 133.38 28.4616C133.234 28.5994 133.154 28.7889 133.157 28.9864L133.247 30.7649C133.268 31.0684 133.482 31.3228 133.785 31.3891C134.821 31.6462 136.792 31.9351 138.423 31.9947C138.497 32 138.571 32 138.638 32C141.288 32 143.083 30.3408 143.994 27.0648C145.042 23.2388 146.357 18.3143 147.318 14.7003C147.753 13.0835 148.126 11.6867 148.397 10.6928L148.924 8.73807C148.981 8.53001 148.928 8.31135 148.802 8.14834M81.2565 16.7849C81.2565 12.7575 80.1281 11.1937 77.2416 11.1937C74.3552 11.1937 73.1899 12.6568 73.1899 16.7849C73.1899 20.5115 73.8361 22.5431 77.2416 22.5431C80.6472 22.5431 81.2565 20.424 81.2565 16.7849ZM85.5664 16.7849C85.5664 23.329 82.9968 26.2538 77.2416 26.2538C71.4864 26.2538 68.8827 23.329 68.8827 16.7849C68.8827 10.2409 71.4618 7.44994 77.2416 7.44994C83.0214 7.44994 85.5664 10.4092 85.5664 16.7849ZM98.9319 22.9354L99.0521 25.2028C99.0712 25.5355 98.8239 25.8416 98.4838 25.9039C97.4961 26.0815 96.1424 26.2948 95.2941 26.2948C91.0251 26.2948 89.7206 24.7059 89.7206 19.5176V11.5873H88.0826C87.6947 11.5873 87.3791 11.2812 87.3791 10.8995V8.56314C87.3791 8.18015 87.6947 7.87534 88.0826 7.87534H89.7206V5.08969C89.7206 4.77296 89.9405 4.49996 90.2547 4.42309L93.0838 3.7565C93.2969 3.70349 93.5141 3.74722 93.6835 3.87709C93.857 4.00962 93.9581 4.20443 93.9581 4.42309V7.87534H98.2693C98.66 7.87534 98.9728 8.18015 98.9728 8.56314V10.8995C98.9728 11.2812 98.66 11.5873 98.2693 11.5873H93.9581V18.9358C93.9581 21.4816 94.0523 22.3655 95.8897 22.3655C96.57 22.3655 97.6273 22.3205 98.1983 22.29C98.5753 22.2794 98.9127 22.5603 98.9319 22.9354Z" fill="#054A97"/>
<path d="M166.59 29.1953C163.484 29.1953 161.258 27.4766 161.199 25.0156H164.168C164.227 26.0703 165.242 26.7734 166.609 26.7734C168.016 26.7734 169.031 25.9727 169.012 24.8398C169.031 23.6875 167.996 22.8672 166.336 22.8672H165.027V20.6992H166.336C167.723 20.6992 168.699 19.9375 168.699 18.8242C168.699 17.75 167.879 17.0078 166.629 17.0078C165.379 17.0078 164.344 17.7109 164.305 18.7852H161.492C161.531 16.3438 163.738 14.6641 166.629 14.6641C169.578 14.6641 171.551 16.4023 171.531 18.6484C171.551 20.2305 170.438 21.3633 168.855 21.6367V21.7539C170.926 22.0078 172.078 23.2773 172.059 25.0352C172.078 27.457 169.773 29.1953 166.59 29.1953ZM174.676 29L180.633 17.3594V17.2617H173.699V14.8594H183.68V17.3008L177.723 29H174.676ZM190.809 29.1953C187.273 29.1953 185.125 26.5586 185.125 21.9297C185.125 17.3008 187.273 14.6641 190.809 14.6641C194.344 14.6641 196.492 17.3203 196.492 21.9297C196.492 26.5781 194.344 29.1953 190.809 29.1953ZM190.809 26.7734C192.449 26.7734 193.504 25.1914 193.484 21.9297C193.484 18.707 192.449 17.0664 190.809 17.0664C189.168 17.0664 188.133 18.707 188.133 21.9297C188.113 25.1914 189.168 26.7734 190.809 26.7734ZM204.012 29.1953C200.477 29.1953 198.328 26.5586 198.328 21.9297C198.328 17.3008 200.477 14.6641 204.012 14.6641C207.547 14.6641 209.695 17.3203 209.695 21.9297C209.695 26.5781 207.547 29.1953 204.012 29.1953ZM204.012 26.7734C205.652 26.7734 206.707 25.1914 206.688 21.9297C206.688 18.707 205.652 17.0664 204.012 17.0664C202.371 17.0664 201.336 18.707 201.336 21.9297C201.316 25.1914 202.371 26.7734 204.012 26.7734ZM222.645 17.8672C222.645 20.7383 224.109 23.8047 227.098 25.0547L225.75 27.0078C223.65 26.1191 222.205 24.3516 221.414 22.1836C220.604 24.5371 219.129 26.4902 217.039 27.457L215.613 25.4844C218.562 24.1758 220.086 20.875 220.086 17.8672V16.7734H216.316V14.7422H226.355V16.7734H222.645V17.8672ZM230.633 13.0234V30.7969H228.113V13.0234H230.633ZM247.352 14.0586V15.6602C247.352 17.3203 247.352 19.1367 246.902 21.6172H249.246V23.6289H242.312V30.8164H239.812V23.6289H233.035V21.6172H244.383C244.832 19.3223 244.871 17.584 244.871 16.0508H234.891V14.0586H247.352Z" fill="black"/>
</svg>
