<svg width="24" height="24" viewBox="0 0 24 24" fill="none" xmlns="http://www.w3.org/2000/svg">
<path d="M7.51794 4.22363L7.55909 4.29287L7.71013 4.55731L8.02827 4.39172C8.05787 4.37667 8.07443 4.33954 8.08045 4.29237C8.08798 4.15187 7.98311 3.95568 7.83257 4.04951C7.71615 4.10772 7.64389 4.15187 7.51744 4.22313M7.18374 4.29237L7.10094 4.14334C7.32123 4.00284 7.55909 3.88392 7.7869 3.75998C8.05536 3.61095 8.43523 3.97123 8.40662 4.29187C8.40261 4.34957 8.38605 4.40076 8.35293 4.45495L8.90089 4.85437C8.79903 4.90154 8.71874 4.94519 8.5968 4.99637L8.11407 4.64563L7.84963 4.78613L8.13164 5.2563C8.02275 5.32554 7.95651 5.36669 7.82956 5.44145L7.18324 4.29187L7.18374 4.29237ZM14.4478 19.3569L14.9476 20.7865C15.0454 20.7503 15.1488 20.7237 15.2476 20.6796L14.7624 19.2575C14.6299 19.3027 14.5682 19.3218 14.4483 19.3569M12.4471 20.7072L12.3312 20.4176L12.2113 20.104L12.1084 20.4176L12.0085 20.7252L12.4476 20.7067L12.4471 20.7072ZM12.6453 20.4176L12.9715 21.209C12.8651 21.215 12.7647 21.2255 12.6699 21.2366L12.569 20.9817L11.9142 20.9982L11.8389 21.2667C11.735 21.2586 11.6372 21.2551 11.5323 21.2551L11.8168 20.4176L12.0166 19.7814L12.0271 19.7618L12.3593 19.7453L12.3758 19.7864L12.6448 20.4171L12.6453 20.4176ZM14.2872 3.72134L14.6259 3.82873C14.7172 3.85582 14.8402 3.7098 14.8402 3.58586C14.8402 3.52465 14.8201 3.47397 14.7383 3.45339C14.6134 3.40773 14.5281 3.38314 14.3921 3.34902L14.3213 3.58586L14.2867 3.72134L14.2872 3.72134ZM14.0805 4.51165C13.959 4.47502 13.8692 4.46197 13.7362 4.42133L13.9826 3.58586L14.1612 2.99025C14.4202 3.05247 14.6656 3.13576 14.9114 3.21705C15.0514 3.2592 15.1257 3.41726 15.1403 3.58636C15.1488 3.81267 15.0364 4.06055 14.8061 4.11173L14.8949 4.78663C14.7875 4.74398 14.7082 4.71086 14.5883 4.66269L14.51 4.0746L14.2215 3.98478L14.081 4.51265L14.0805 4.51165ZM9.48398 19.6981C9.47344 19.6539 9.45739 19.6208 9.4047 19.5987L9.02584 19.4557L8.94053 19.6986L8.90993 19.7869L8.90742 19.7929L9.25466 19.9189C9.34699 19.963 9.43932 19.8777 9.47244 19.7864C9.48398 19.7618 9.49402 19.7287 9.48398 19.6981ZM9.767 19.6981L9.767 19.7809C9.74442 19.9826 9.60692 20.1868 9.38663 20.2114L9.43631 20.9149C9.33394 20.8938 9.21703 20.8587 9.10814 20.811L9.0971 20.1497L8.79953 20.0212L8.55766 20.6078C8.46031 20.5762 8.36146 20.5431 8.26662 20.4969L8.57222 19.7859L8.60935 19.6976L8.85774 19.111L9.53567 19.3724C9.68671 19.4256 9.75495 19.5616 9.767 19.6976M14.089 19.4833C13.6494 19.5792 13.3102 19.6605 12.8751 19.7282L12.9148 19.9826C13.0754 19.955 13.2234 19.9349 13.394 19.9164L13.6138 21.1367L13.9379 21.076L13.6755 19.8562C13.8411 19.8175 13.9956 19.7734 14.1612 19.7367L14.0895 19.4838L14.089 19.4833ZM15.7414 5.20712L16.0686 4.57738L16.9497 4.16693C16.8569 4.10069 16.756 4.05603 16.6647 3.99331L16.0565 4.2713L15.9451 3.60995C15.8172 3.55224 15.7409 3.52364 15.6094 3.47346L15.7851 4.43187L15.4584 5.05207L15.7409 5.20712L15.7414 5.20712ZM19.0498 5.5945C18.9103 5.42188 18.6784 5.44697 18.6127 5.5659L17.587 6.59907C17.4365 6.75311 17.4505 6.98343 17.6056 7.09533C19.1546 8.81142 19.8035 10.945 19.2941 13.5909C19.2851 13.761 19.3935 13.8975 19.5285 13.9391L20.9481 14.3521C21.1367 14.4058 21.2577 14.2899 21.2983 14.1283C22.0274 10.8743 21.0284 7.67439 19.0503 5.594M20.6921 15.1118L19.2695 14.6251C19.1953 14.596 19.0026 14.596 18.9017 14.8484C17.7536 17.5976 15.083 19.4823 11.9905 19.4823C8.89788 19.4823 6.17462 17.553 5.07619 14.8062C4.9944 14.596 4.79518 14.596 4.71941 14.6251L3.30685 15.1118C3.1538 15.166 3.06097 15.302 3.14226 15.4967C4.52772 19.0393 7.98009 21.5381 11.9905 21.5381C16.0008 21.5381 19.4663 19.0227 20.8577 15.4836C20.932 15.2985 20.8452 15.166 20.6921 15.1118ZM3.07502 14.3516L4.4926 13.9386C4.62507 13.8975 4.73396 13.7605 4.72342 13.5904C4.2131 10.9485 4.86092 8.81092 6.40896 7.09483C6.56502 6.98293 6.58108 6.75261 6.43255 6.59856L5.40236 5.56138C5.3025 5.44597 5.12035 5.44597 4.96429 5.60503C2.98971 7.68593 1.99214 10.8732 2.72376 14.1323C2.7644 14.2889 2.88835 14.4048 3.07502 14.3511M17.2905 7.75266C17.2945 7.68994 17.2573 7.61116 17.168 7.52435C16.0335 6.32158 14.8683 5.6512 13.2711 5.27386C13.1817 5.24927 13.0759 5.22619 13.0081 5.29042C12.9359 5.34511 12.9158 5.45601 12.9308 5.62109L13.1928 9.31873C13.2008 9.45922 13.2645 9.57112 13.3584 9.62883C13.4612 9.68352 13.5832 9.67399 13.7106 9.61227L17.0406 8.00456C17.1479 7.95388 17.2689 7.89668 17.291 7.78478C17.291 7.77675 17.295 7.76822 17.291 7.75216M17.9649 14.3591C18.0642 14.4244 18.1791 14.5001 18.283 14.4665C18.3528 14.4424 18.416 14.3677 18.4531 14.2262C18.9203 12.647 18.9203 11.2988 18.4531 9.73621C18.425 9.63736 18.3804 9.53801 18.2961 9.50037C18.2153 9.47177 18.1099 9.50539 17.9614 9.60775L14.9069 11.6831C14.789 11.7619 14.7288 11.8698 14.7288 11.9817C14.7288 12.0936 14.789 12.204 14.9069 12.2787L17.9654 14.3591L17.9649 14.3591ZM12.9991 18.6574C13.0543 18.7011 13.1481 18.7151 13.2901 18.676C14.8793 18.2981 16.0435 17.6247 17.1796 16.434C17.2458 16.3522 17.3206 16.2729 17.3 16.1851C17.2789 16.0963 17.2046 16.0205 17.0506 15.9473L13.7202 14.3335C13.5932 14.2718 13.4718 14.2718 13.3689 14.3255C13.2721 14.3877 13.2118 14.4921 13.2023 14.6396L12.9333 18.3242C12.9318 18.4446 12.9168 18.5831 12.9996 18.6574M11.9915 14.3872C13.3067 14.3872 14.3765 13.3199 14.3765 12.0053C14.3765 10.6906 13.3072 9.62381 11.9915 9.61578C10.6778 9.61578 9.60893 10.6906 9.60893 12.0053C9.60893 13.3199 10.6783 14.3872 11.9915 14.3872ZM6.7532 16.2448C6.7532 16.3091 6.79585 16.3883 6.87564 16.4706C8.02325 17.6754 9.1819 18.3448 10.7736 18.7196C10.877 18.7502 10.9763 18.7668 11.0466 18.7086C11.1188 18.6569 11.1399 18.5465 11.1279 18.3694C11.1279 18.3674 10.8564 14.6727 10.8564 14.6727C10.8449 14.5358 10.7927 14.4249 10.6948 14.3707C10.5955 14.313 10.4715 14.313 10.339 14.3742L7.01564 15.9909C6.89922 16.0461 6.77528 16.1068 6.75671 16.2152C6.75671 16.2227 6.7527 16.2363 6.7527 16.2448M6.70302 7.80936C6.71807 7.92477 6.84453 7.97846 6.95693 8.03266L10.2813 9.64539C10.4138 9.71162 10.5368 9.71162 10.6376 9.65743C10.7304 9.59571 10.7922 9.49184 10.8002 9.34783L11.0682 5.66023C11.0832 5.48059 11.0586 5.37823 10.9934 5.32353C10.9231 5.26232 10.8193 5.27888 10.7199 5.29895C9.1247 5.6808 7.96554 6.3547 6.81893 7.54944C6.7261 7.65682 6.68445 7.73962 6.70302 7.81037M6.03613 9.62933C5.92824 9.55958 5.81233 9.4803 5.71749 9.52245C5.63971 9.54704 5.58451 9.62933 5.54386 9.75728C5.08121 11.3449 5.08121 12.6887 5.54386 14.2522C5.57548 14.3551 5.6096 14.458 5.70344 14.4836C5.77921 14.5162 5.89061 14.4836 6.03563 14.3837L9.08806 12.3038C9.20147 12.2291 9.26971 12.1217 9.26971 12.0108C9.26971 11.8914 9.20147 11.791 9.08806 11.7087L6.03563 9.62933L6.03613 9.62933ZM5.96939 5.01494L6.95693 6.11133C7.09292 6.25886 7.24647 6.2423 7.44518 6.08524C8.68964 5.10927 10.2894 4.53072 11.991 4.53072C13.6926 4.53072 15.2948 5.10626 16.5523 6.08524C16.749 6.23076 16.8981 6.25886 17.0406 6.11133L18.0276 5.01494C18.138 4.89401 18.138 4.72591 17.9232 4.54678C16.2718 3.2577 14.2305 2.46287 11.987 2.46287C9.74341 2.46287 7.68554 3.2577 6.06272 4.55179C5.84996 4.72541 5.85899 4.89401 5.96889 5.01494M24 12.0148C24 12.1553 23.994 12.2958 23.9784 12.4077L23.9744 12.4368L23.9423 12.4539C23.432 12.7589 22.7721 12.9326 22.1107 12.9491C22.0942 13.0319 22.0239 13.6315 22.0114 13.7143C22.6276 13.889 23.2252 14.2272 23.6437 14.6582L23.6603 14.6863L23.6603 14.7149C23.6272 14.9472 23.5444 15.2618 23.451 15.4691L23.4405 15.5002L23.4109 15.5047C22.8333 15.6708 22.1514 15.6653 21.5206 15.5102C21.4905 15.588 21.2582 16.1425 21.2351 16.2243C21.7866 16.572 22.2753 17.0512 22.5488 17.5645L22.5639 17.5941L22.5558 17.6227C22.4695 17.8259 22.3084 18.1225 22.1629 18.2996L22.1474 18.3257L22.1107 18.3257C21.5211 18.3302 20.8618 18.1566 20.2872 17.838C20.2345 17.9077 19.8506 18.413 19.7994 18.4793C20.2511 18.9494 20.5948 19.541 20.7338 20.1246L20.7433 20.1532L20.7253 20.1768C20.5943 20.3554 20.3529 20.5923 20.1768 20.7328L20.1562 20.7493L20.1131 20.7428C19.5455 20.5923 18.9449 20.2465 18.4787 19.7974C18.41 19.8501 17.9338 20.222 17.864 20.2766C18.1666 20.8316 18.3518 21.4749 18.3518 22.055L18.3518 22.1342L18.3186 22.1563C18.1415 22.2983 17.85 22.4654 17.6412 22.5517L17.6206 22.5618L17.587 22.5472C17.0747 22.2507 16.5859 21.7679 16.2517 21.2085C16.1699 21.2446 15.5894 21.4935 15.5106 21.5286C15.5889 21.8357 15.6375 22.1644 15.6466 22.4805C15.6466 22.8056 15.5894 23.1283 15.5106 23.4213L15.5066 23.4519L15.4755 23.4685C15.2818 23.5498 14.9546 23.6291 14.7268 23.6692L14.6921 23.6737L14.6721 23.6501C14.233 23.2311 13.8948 22.6365 13.7182 22.0153C13.6399 22.0173 13.0402 22.1011 12.9534 22.1167C12.9439 22.7705 12.7647 23.4324 12.4546 23.9447L12.4376 23.9713L12.4034 23.9763C12.1937 24.0079 11.8595 24.0079 11.6327 23.9763L11.6051 23.9713L11.585 23.9447C11.2829 23.4319 11.1033 22.7705 11.0907 22.1167C10.9999 22.1092 10.3666 22.0173 10.2798 22.0153C10.1067 22.632 9.767 23.2226 9.33796 23.6471L9.31488 23.6692L9.28025 23.6637C9.04692 23.6291 8.7363 23.5397 8.52956 23.4539L8.50497 23.4404L8.49494 23.4158C8.40712 23.1233 8.36196 22.7971 8.36196 22.4724C8.36196 22.1478 8.40712 21.8357 8.48841 21.5286C8.40763 21.493 7.85966 21.2712 7.78088 21.2361C7.44417 21.8021 6.95592 22.2948 6.43857 22.5808L6.41097 22.5954L6.37835 22.5864C6.16559 22.492 5.88308 22.3309 5.70243 22.1945L5.67985 22.1714L5.67985 22.1097C5.67985 21.5221 5.85849 20.8758 6.16509 20.3098C6.09634 20.2571 5.58601 19.8687 5.51626 19.817C5.04859 20.2681 4.45396 20.6078 3.8794 20.7558L3.84779 20.7644L3.81667 20.7433C3.64054 20.6008 3.41574 20.3735 3.27273 20.1944L3.25416 20.1622L3.26068 20.1316C3.41624 19.5506 3.75897 18.96 4.20758 18.4998C4.15689 18.4306 3.76951 17.9293 3.71481 17.8515C3.14527 18.1742 2.48039 18.3558 1.89128 18.3428L1.85916 18.3428L1.83859 18.3232C1.70109 18.1411 1.536 17.847 1.44819 17.6433L1.43414 17.6112L1.44819 17.5856C1.74475 17.0647 2.23049 16.5825 2.78448 16.2478C2.74835 16.165 2.5115 15.6061 2.47236 15.5283C1.8431 15.6853 1.15664 15.6889 0.580579 15.5283L0.551475 15.5203L0.535919 15.4942C0.457137 15.3 0.371329 14.9728 0.337207 14.7415L0.32968 14.7049L0.350254 14.6763C0.768252 14.2502 1.35887 13.9145 1.99013 13.7254C1.9831 13.6346 1.89077 13.0018 1.87973 12.9145C1.22439 12.906 0.561511 12.7359 0.0471679 12.4303L0.0210744 12.4137L0.0185654 12.3766C0.00351151 12.2727 -1.06063e-06 12.1322 -1.04804e-06 11.9882C-1.03545e-06 11.8442 0.00351156 11.7147 0.0185655 11.5993L0.0210745 11.5662L0.047168 11.5496C0.561511 11.2476 1.22489 11.0699 1.87973 11.0619C1.89529 10.9746 1.97357 10.3589 1.98311 10.2726C1.35937 10.0945 0.764238 9.75528 0.341724 9.32926L0.324161 9.30869L0.329681 9.27557C0.357781 9.03572 0.446098 8.7216 0.53592 8.5229L0.54445 8.49379L0.576063 8.48577C1.1441 8.31717 1.83307 8.32068 2.46584 8.47774C2.50146 8.40347 2.73078 7.84499 2.76742 7.75818C2.20942 7.42299 1.71816 6.93977 1.42661 6.42043L1.41256 6.38681L1.42661 6.35721C1.51744 6.14846 1.68303 5.86596 1.813 5.68983L1.83307 5.66274L1.86819 5.66274C2.46634 5.65371 3.1267 5.83535 3.69374 6.15298C3.74693 6.08674 4.13582 5.56339 4.1865 5.49263C3.73589 5.02497 3.39517 4.43438 3.24814 3.8513L3.24262 3.82672L3.25416 3.80213C3.39818 3.61998 3.63703 3.38415 3.81316 3.24816L3.83976 3.2316L3.86686 3.23461C4.45396 3.38465 5.04608 3.73339 5.50673 4.18248C5.57447 4.12929 6.03462 3.77353 6.10488 3.72235C5.78674 3.16537 5.6086 2.52008 5.6086 1.94253L5.6086 1.85471L5.63871 1.83715C5.81132 1.69966 6.10488 1.53257 6.31312 1.44827L6.3357 1.43171L6.36982 1.44827C6.88417 1.7388 7.3689 2.22553 7.70661 2.78452C7.78791 2.75491 8.38705 2.49148 8.46935 2.45735C8.39057 2.15077 8.34089 1.82661 8.34591 1.50597C8.34591 1.17731 8.38655 0.861185 8.47437 0.570151L8.47838 0.53603L8.50899 0.525994C8.70369 0.445709 9.02584 0.357897 9.25516 0.323274L9.28929 0.319762L9.31538 0.340335C9.74492 0.759323 10.0846 1.35494 10.2648 1.98267C10.3546 1.97464 10.9844 1.89435 11.0687 1.8778C11.0822 1.2315 11.2588 0.570151 11.5695 0.0563261L11.5815 0.0302334L11.6146 0.0206995C11.8399 -0.00689847 12.1726 -0.00689844 12.3919 0.0206996L12.421 0.0302335L12.4391 0.0563262C12.7497 0.570151 12.9308 1.2315 12.9308 1.87278C13.0247 1.89435 13.6409 1.97464 13.7287 1.98267C13.9119 1.35444 14.2506 0.761832 14.6826 0.345855L14.7027 0.323275L14.7308 0.331805C14.9651 0.357396 15.2828 0.445709 15.4865 0.53603L15.5111 0.545062L15.5211 0.580187C15.6104 0.869214 15.6521 1.18182 15.6521 1.50648C15.6466 1.83013 15.5999 2.15428 15.5211 2.46538C15.5999 2.4985 16.198 2.74789 16.2818 2.78452C16.6155 2.22553 17.0912 1.74332 17.6111 1.44827L17.6412 1.43171L17.6733 1.44827C17.8776 1.53408 18.1661 1.69966 18.3432 1.84016L18.3688 1.85471L18.3688 1.936C18.3688 2.5256 18.1867 3.17039 17.8781 3.72185C17.9458 3.77303 18.4396 4.1599 18.5138 4.21811C18.98 3.76349 19.5721 3.41777 20.1557 3.27526L20.1818 3.2597L20.2089 3.28881C20.383 3.41726 20.6209 3.66364 20.7554 3.83977L20.779 3.86736L20.7699 3.89647C20.6209 4.48004 20.2696 5.07415 19.8195 5.53479C19.8727 5.60704 20.2445 6.09829 20.3028 6.16904C20.8843 5.85492 21.5397 5.6783 22.1348 5.68934L22.1624 5.68934L22.1815 5.71392C22.327 5.90059 22.4931 6.1851 22.5719 6.3838L22.5925 6.41993L22.5719 6.45004C22.2773 6.96386 21.7906 7.44357 21.2341 7.78277C21.2692 7.86556 21.4935 8.42405 21.5377 8.50634C22.1619 8.34527 22.8489 8.34125 23.4194 8.50634L23.4525 8.51035L23.4651 8.54347C23.5444 8.74218 23.6377 9.06432 23.6683 9.30016L23.6728 9.32876L23.6482 9.34984C23.2317 9.78338 22.6351 10.1226 22.0104 10.3007C22.0229 10.3875 22.1007 10.9992 22.1162 11.086C22.7741 11.098 23.431 11.2727 23.9413 11.5778L23.9734 11.5943L23.9774 11.6274C23.993 11.7393 23.999 11.8723 23.999 12.0163M17.2769 17.6779L17.9016 18.3513L16.8514 18.0417C16.7646 18.1105 16.7064 18.1325 16.6306 18.1988L17.5414 19.4261C17.6206 19.3669 17.7014 19.2901 17.7737 19.2304L17.2197 18.4913L18.28 18.8104C18.3518 18.7477 18.4556 18.676 18.5279 18.5861L17.4711 17.4692C17.4139 17.5289 17.3502 17.6107 17.2769 17.6779ZM16.5508 19.4723C16.5508 19.384 16.5282 19.3022 16.4856 19.2244C16.3601 18.9931 16.0631 18.9173 15.8307 19.0498C15.6681 19.1366 15.5853 19.3027 15.5853 19.4728C15.5889 19.5506 15.6094 19.6384 15.6561 19.7126C15.6681 19.7372 15.6847 19.7623 15.7083 19.7869C15.8523 19.9595 16.1092 20.0002 16.3054 19.8863C16.3601 19.8567 16.4038 19.8235 16.4379 19.7869C16.5107 19.6986 16.5513 19.5802 16.5513 19.4728M16.7224 19.0995C16.7856 19.2079 16.8178 19.3403 16.8228 19.4728C16.8228 19.5782 16.8002 19.683 16.757 19.7814C16.6868 19.9189 16.5834 20.0463 16.4384 20.1296C16.0866 20.3364 15.628 20.2124 15.4147 19.8511C15.4077 19.8281 15.3972 19.807 15.3836 19.7814C15.341 19.683 15.3199 19.5782 15.3104 19.4728C15.3199 19.2058 15.4499 18.96 15.6897 18.8225C16.0485 18.6203 16.5112 18.7402 16.7224 19.1M18.3021 17.0898L18.4787 17.3728L18.6413 17.6538L18.8621 17.3728L18.9193 17.3011L18.3026 17.0898L18.3021 17.0898ZM18.129 16.7446L19.6328 17.2409C19.5967 17.285 19.5691 17.3272 19.5375 17.3733C19.5099 17.4065 19.4798 17.4396 19.4592 17.4842L19.1948 17.3899L18.7853 17.9027L18.9348 18.1365C18.8736 18.2063 18.8064 18.2831 18.7276 18.3573L18.1325 17.3733L17.9122 17.0095L18.13 16.7451L18.129 16.7446ZM19.7939 16.5243L18.6905 15.9167L18.55 16.1696L19.8727 16.9102L20.383 15.9949L20.1557 15.8745L19.7944 16.5243L19.7939 16.5243ZM11.0667 19.7131L10.9578 20.6334L10.5157 19.6253C10.4123 19.6053 10.3481 19.5787 10.2427 19.5631L9.89746 21.0479C10.0048 21.0775 10.1067 21.0885 10.2166 21.1066L10.4038 20.1954L10.8514 21.2095C10.9527 21.226 11.0667 21.2591 11.1856 21.2556L11.3512 19.7212C11.2649 19.7157 11.161 19.7292 11.0672 19.7131M11.017 3.05096L11.1495 4.28183L11.4721 4.24872L11.3462 3.02788L11.8349 2.99577L11.8178 2.72179C11.2689 2.75491 11.0456 2.77398 10.5046 2.85527L10.5413 3.11619L11.0175 3.05096L11.017 3.05096ZM12.5133 3.72235C12.6779 3.73088 12.83 3.74694 12.984 3.77202L12.9032 3.4549L12.8029 3.13225L12.6498 3.4549L12.5138 3.72235L12.5133 3.72235ZM12.2629 4.23617C12.1375 4.23467 12.0798 4.23467 11.9553 4.23467L12.3312 3.4544L12.6704 2.74789L13.0076 2.78452L13.1832 3.4544L13.4291 4.3566C13.3152 4.33502 13.2264 4.31846 13.1205 4.31395L13.0332 4.02793C12.8109 3.99482 12.6087 3.98478 12.4039 3.97575L12.2624 4.23617L12.2629 4.23617ZM9.13373 3.86084C9.1548 4.12879 9.39165 4.32549 9.64907 4.3009C9.90298 4.27631 10.0932 4.0746 10.0932 3.81819C10.1012 3.80614 10.0932 3.78959 10.0932 3.77303C10.0721 3.50407 9.83926 3.3149 9.5723 3.34149C9.31588 3.35906 9.12419 3.56178 9.13373 3.81819L9.13373 3.86084ZM8.85824 3.88743L8.85824 3.81819C8.85071 3.42931 9.14878 3.11017 9.53868 3.07706C9.95467 3.03591 10.3235 3.34149 10.3571 3.75647L10.3571 3.81869C10.3571 4.20707 10.0646 4.53825 9.66513 4.57538C9.26319 4.6095 8.89337 4.30743 8.85824 3.88743ZM12.0171 13.4469C12.8024 13.4469 13.4467 12.8021 13.4467 12.0168C13.4467 11.3635 12.9926 10.7975 12.3678 10.6404C12.3593 10.5777 12.3432 10.2801 12.3432 10.2801L11.6226 10.2801C11.6226 10.2801 11.6061 10.6028 11.5991 10.669C11.0009 10.8507 10.5975 11.3966 10.5975 12.0168C10.5975 12.8021 11.2423 13.4469 12.0176 13.4469M11.9905 14.1554C10.8067 14.1554 9.84227 13.187 9.84227 12.0088C9.84227 10.8306 10.8067 9.85513 11.9905 9.85513C13.1742 9.85513 14.1372 10.8226 14.1372 12.0088C14.1372 13.195 13.1767 14.1554 11.9905 14.1554ZM7.7593 18.8385C7.96454 18.9509 8.16375 19.0663 8.38705 19.1727L8.52153 18.9504C8.21293 18.7894 7.91988 18.6067 7.65995 18.4251L6.80388 19.682C7.12904 19.8968 7.4246 20.0759 7.7588 20.2686L7.89529 20.0463L7.20532 19.6379L7.43765 19.3132L7.89529 19.5882L8.02877 19.3734C7.88274 19.2906 7.7297 19.1998 7.56862 19.1005L7.7588 18.8385L7.7593 18.8385ZM6.04767 16.9754L5.34415 17.5851L5.70293 16.5434C5.63921 16.4531 5.6091 16.3913 5.54336 16.3081L4.28234 17.1641C4.33905 17.2479 4.4088 17.3257 4.46851 17.4135L5.22673 16.8876L4.87095 17.9378C4.93167 18.0076 4.99439 18.114 5.08121 18.1822L6.24789 17.1842C6.18315 17.1154 6.10588 17.0522 6.04817 16.9749M5.21569 15.7656L3.91603 16.5228C3.9632 16.6136 4.01438 16.7185 4.07159 16.8073L5.37125 16.0486C5.30802 15.9327 5.27089 15.873 5.21569 15.7656ZM6.81893 18.127L6.01806 19.0754L5.77017 18.8606L6.59714 17.9383C6.46617 17.8174 6.36681 17.7095 6.23885 17.5956L6.42352 17.409C6.73915 17.7095 7.01614 17.9383 7.36338 18.2158L7.20331 18.4226C7.07636 18.3232 6.94689 18.2269 6.81893 18.1275" fill="#054A97"/>
</svg>
