<svg width="24" height="24" viewBox="0 0 24 24" fill="none" xmlns="http://www.w3.org/2000/svg">
<path d="M0.642857 9H23.3571C23.7107 9 24 9.25313 24 9.5625V21.75C24 22.9922 22.8482 24 21.4286 24H2.57143C1.15179 24 0 22.9922 0 21.75V9.5625C0 9.25313 0.289286 9 0.642857 9ZM24 6.9375V5.25C24 4.00781 22.8482 3 21.4286 3H18.8571V0.5625C18.8571 0.253125 18.5679 0 18.2143 0H16.0714C15.7179 0 15.4286 0.253125 15.4286 0.5625V3H8.57143V0.5625C8.57143 0.253125 8.28214 0 7.92857 0H5.78571C5.43214 0 5.14286 0.253125 5.14286 0.5625V3H2.57143C1.15179 3 0 4.00781 0 5.25V6.9375C0 7.24687 0.289286 7.5 0.642857 7.5H23.3571C23.7107 7.5 24 7.24687 24 6.9375Z" fill="#054A97"/>
</svg>
