<svg width="24" height="27" viewBox="0 0 24 27" fill="none" xmlns="http://www.w3.org/2000/svg">
<path d="M23.3571 25.3125H22.2857V1.26562C22.2857 0.566631 21.7101 0 21 0H3C2.28991 0 1.71429 0.566631 1.71429 1.26562V25.3125H0.642857C0.287839 25.3125 0 25.5958 0 25.9453V27H24V25.9453C24 25.5958 23.7122 25.3125 23.3571 25.3125ZM6.85714 4.00781C6.85714 3.65834 7.14498 3.375 7.5 3.375H9.64286C9.99788 3.375 10.2857 3.65834 10.2857 4.00781V6.11719C10.2857 6.46666 9.99788 6.75 9.64286 6.75H7.5C7.14498 6.75 6.85714 6.46666 6.85714 6.11719V4.00781ZM6.85714 9.07031C6.85714 8.72084 7.14498 8.4375 7.5 8.4375H9.64286C9.99788 8.4375 10.2857 8.72084 10.2857 9.07031V11.1797C10.2857 11.5292 9.99788 11.8125 9.64286 11.8125H7.5C7.14498 11.8125 6.85714 11.5292 6.85714 11.1797V9.07031ZM9.64286 16.875H7.5C7.14498 16.875 6.85714 16.5917 6.85714 16.2422V14.1328C6.85714 13.7833 7.14498 13.5 7.5 13.5H9.64286C9.99788 13.5 10.2857 13.7833 10.2857 14.1328V16.2422C10.2857 16.5917 9.99788 16.875 9.64286 16.875ZM13.7143 25.3125H10.2857V20.8828C10.2857 20.5333 10.5736 20.25 10.9286 20.25H13.0714C13.4264 20.25 13.7143 20.5333 13.7143 20.8828V25.3125ZM17.1429 16.2422C17.1429 16.5917 16.855 16.875 16.5 16.875H14.3571C14.0021 16.875 13.7143 16.5917 13.7143 16.2422V14.1328C13.7143 13.7833 14.0021 13.5 14.3571 13.5H16.5C16.855 13.5 17.1429 13.7833 17.1429 14.1328V16.2422ZM17.1429 11.1797C17.1429 11.5292 16.855 11.8125 16.5 11.8125H14.3571C14.0021 11.8125 13.7143 11.5292 13.7143 11.1797V9.07031C13.7143 8.72084 14.0021 8.4375 14.3571 8.4375H16.5C16.855 8.4375 17.1429 8.72084 17.1429 9.07031V11.1797ZM17.1429 6.11719C17.1429 6.46666 16.855 6.75 16.5 6.75H14.3571C14.0021 6.75 13.7143 6.46666 13.7143 6.11719V4.00781C13.7143 3.65834 14.0021 3.375 14.3571 3.375H16.5C16.855 3.375 17.1429 3.65834 17.1429 4.00781V6.11719Z" fill="#054A97"/>
</svg>
