<svg width="24" height="26" viewBox="0 0 24 26" fill="none" xmlns="http://www.w3.org/2000/svg">
<path d="M0 11.5408C0.0057841 11.5323 0.011985 11.5239 0.0178212 11.5154C0.0167269 11.5239 0.0154763 11.5323 0.0144341 11.5408H0ZM23.9999 12.3537C23.9999 10.0456 23.5959 7.92611 22.4992 5.93732C20.3634 2.09041 16.581 2.85323e-05 12.1507 2.85323e-05C4.85906 -0.0144917 0.77658 5.51524 0.0178212 11.5154C2.22875 8.30149 6.11838 5.15297 11.5013 4.96478C11.5013 4.96478 17.2159 4.96478 16.682 10.4666H7.51844C7.85033 8.50681 8.48527 7.37456 9.30781 6.32931C5.39714 8.15838 2.95833 11.3666 3.01607 16.2007C3.05932 19.9459 5.62798 23.7929 9.30787 25.2156C13.6515 26.885 19.3532 25.593 21.8209 24.0978V18.625C17.6072 21.5864 7.70609 21.8186 7.63397 15.0829H24L23.9999 12.3537Z" fill="#054A97"/>
</svg>
