<svg width="24" height="15" viewBox="0 0 24 15" fill="none" xmlns="http://www.w3.org/2000/svg">
<mask id="mask0_10255_45430" style="mask-type:luminance" maskUnits="userSpaceOnUse" x="0" y="0" width="24" height="15">
<path d="M24 0H0V15H24V0Z" fill="white"/>
</mask>
<g mask="url(#mask0_10255_45430)">
<path d="M17.1094 7.49725L23.8931 14.259C23.9622 14.1041 23.998 13.937 23.9982 13.7681V1.22637C23.9978 1.0578 23.9621 0.891096 23.8931 0.736572L17.1094 7.49725Z" fill="#054A97"/>
<path d="M15.0231 9.57564C14.6602 9.9335 14.2278 10.2169 13.7512 10.4091C13.2746 10.6013 12.7634 10.6985 12.2478 10.6949C12.1616 10.6949 12.0785 10.6949 11.9965 10.6887C11.9145 10.6826 11.8315 10.6949 11.7442 10.6949C11.2286 10.6988 10.7173 10.6017 10.2407 10.4095C9.76404 10.2172 9.33162 9.93373 8.96895 9.57564L7.50035 8.11035L0.71875 14.8782C0.887321 14.9575 1.07202 14.9985 1.25909 14.9984H22.7361C22.9236 14.9989 23.1087 14.9578 23.2775 14.8782L16.4875 8.11035L15.0231 9.57564Z" fill="#054A97"/>
<path d="M0.105126 0.736572C0.0355426 0.890905 -0.000263971 1.05774 1.46502e-06 1.22637V13.7681C-0.000263971 13.9368 0.0355426 14.1036 0.105126 14.2579L6.88883 7.49725L0.105126 0.736572Z" fill="#054A97"/>
<path d="M11.7432 9.83605C11.821 9.83605 11.8946 9.83605 11.9671 9.82989H11.9955H12.0218C12.0943 9.82989 12.1689 9.83605 12.2467 9.83605C12.6397 9.84079 13.0297 9.76914 13.3941 9.6253C13.7585 9.48145 14.09 9.26827 14.3692 8.99816L14.385 8.98173L23.2775 0.120145C23.1087 0.0405241 22.9236 -0.000558312 22.7361 5.73033e-06H1.25384C1.06865 0.000602802 0.88591 0.0412826 0.71875 0.119119L9.62072 8.99816C9.90004 9.26849 10.2317 9.4818 10.5962 9.62566C10.9608 9.76951 11.35 9.84104 11.7432 9.83605Z" fill="#054A97"/>
</g>
</svg>
