<svg width="24" height="24" viewBox="0 0 24 24" fill="none" xmlns="http://www.w3.org/2000/svg">
<path d="M21.4205 22.957C18.8145 25.5645 12.1396 23.1145 6.51279 17.4848C0.886002 11.8551 -1.56385 5.18462 1.04216 2.57842L2.75868 0.868015C3.34627 0.299348 4.1356 -0.0127221 4.95317 0.000397542C5.77074 0.0135171 6.54965 0.350753 7.11869 0.93798L9.77718 3.59666C10.3644 4.16575 10.7016 4.94471 10.7147 5.76234C10.7278 6.57998 10.4158 7.36936 9.84714 7.957L9.47235 8.32556C9.1596 8.63928 8.97523 9.05848 8.95536 9.50104C8.93548 9.94359 9.08154 10.3776 9.36491 10.7181C9.93833 11.4128 10.5567 12.1049 11.2263 12.7746C11.896 13.4443 12.5881 14.0627 13.2827 14.6362C13.6231 14.9196 14.0571 15.0656 14.4997 15.0458C14.9422 15.0259 15.3614 14.8415 15.6751 14.5287L16.0436 14.1539C16.6312 13.5853 17.4205 13.2732 18.2381 13.2863C19.0557 13.2994 19.8346 13.6367 20.4036 14.2239L23.0621 16.8813C23.6493 17.4504 23.9865 18.2294 23.9996 19.047C24.0127 19.8646 23.7007 20.654 23.1321 21.2417L21.4205 22.957Z" fill="#054A97"/>
</svg>
