<svg width="24" height="21" viewBox="0 0 24 21" fill="none" xmlns="http://www.w3.org/2000/svg">
<path fill-rule="evenodd" clip-rule="evenodd" d="M2.3995 4.6521C2.08429 4.6521 1.77216 4.70731 1.48096 4.81459C1.18976 4.92187 0.925184 5.0791 0.702353 5.27731C0.479523 5.47552 0.302804 5.71083 0.182292 5.96977C0.0617797 6.22872 -0.000163323 6.50625 1.88224e-06 6.78648V8.54967C-0.000644984 9.00896 0.165455 9.45617 0.473603 9.8248C0.781752 10.1934 1.21549 10.4638 1.71034 10.5957L10.6204 12.9727C11.5199 13.2126 12.4788 13.2126 13.3783 12.9727L22.2884 10.5957C22.7835 10.464 23.2175 10.1937 23.5259 9.82507C23.8343 9.45642 24.0006 9.0091 24 8.54967V6.78648C24 6.22071 23.7472 5.6781 23.2972 5.27804C22.8472 4.87797 22.2369 4.65322 21.6005 4.65322L2.3995 4.6521ZM13.7996 8.31041C13.7996 7.88592 13.61 7.47883 13.2723 7.17867C12.9347 6.87852 12.4768 6.7099 11.9994 6.7099C11.5219 6.7099 11.064 6.87852 10.7264 7.17867C10.3888 7.47883 10.1991 7.88592 10.1991 8.31041V10.1396C10.1991 10.564 10.3888 10.9711 10.7264 11.2713C11.064 11.5714 11.5219 11.7401 11.9994 11.7401C12.4768 11.7401 12.9347 11.5714 13.2723 11.2713C13.61 10.9711 13.7996 10.564 13.7996 10.1396V8.31041Z" fill="#054A97"/>
<path fill-rule="evenodd" clip-rule="evenodd" d="M0.09375 11.6828V15.9315C0.09375 17.2753 0.694224 18.5642 1.76308 19.5144C2.83193 20.4647 4.2816 20.9985 5.79318 20.9985H18.1931C19.7047 20.9985 21.1544 20.4647 22.2232 19.5144C23.2921 18.5642 23.8925 17.2753 23.8925 15.9315V11.6828C23.5543 11.8778 23.1862 12.0284 22.7997 12.1301L13.8896 14.5071C12.6525 14.8369 11.3338 14.8369 10.0967 14.5071L1.1866 12.1301C0.800049 12.0284 0.431984 11.8778 0.09375 11.6828ZM0.166691 9.35278L11.9881 11.1327L23.8095 9.35278C23.6759 9.64862 23.4694 9.91407 23.2052 10.1296C22.941 10.3452 22.6258 10.5053 22.2828 10.5983L13.3715 12.9742C12.472 13.214 11.5131 13.214 10.6136 12.9742L1.70348 10.5983C1.35864 10.5065 1.04146 10.3468 0.775431 10.1312C0.509407 9.91564 0.301355 9.64958 0.166691 9.35278Z" fill="#054A97"/>
<path d="M15.9996 4.65719V4.55656C15.9996 3.6135 15.5783 2.70904 14.8283 2.04209C14.0784 1.37514 13.0612 1.0003 12.0004 1C10.9394 1 9.92192 1.37471 9.1717 2.04169C8.42147 2.70868 8 3.6133 8 4.55656V4.65831" stroke="#054A97" stroke-width="1.5"/>
</svg>
