<svg width="50" height="50" viewBox="0 0 50 50" fill="none" xmlns="http://www.w3.org/2000/svg">
<g clip-path="url(#clip0_14488_45317)">
<path d="M37.6191 32.5397H12.2291C11.9891 32.5397 11.7891 32.3397 11.7891 32.0997V17.0597C11.7891 12.0297 15.8791 7.92969 20.9191 7.92969H28.9391C33.9691 7.92969 38.0691 12.0197 38.0691 17.0597V32.0997C38.0691 32.3397 37.8691 32.5397 37.6291 32.5397H37.6191ZM12.6691 31.6597H37.1791V17.0597C37.1791 12.5097 33.4791 8.81969 28.9391 8.81969H20.9191C16.3691 8.81969 12.6791 12.5197 12.6791 17.0597V31.6597H12.6691Z" fill="#054A97"/>
<path d="M37.6213 33.0499H12.2312C11.7112 33.0499 11.2812 32.6199 11.2812 32.0999V17.0599C11.2812 11.7499 15.6012 7.41992 20.9212 7.41992H28.9412C34.2512 7.41992 38.5812 11.7399 38.5812 17.0599V32.0999C38.5812 32.6199 38.1512 33.0499 37.6312 33.0499H37.6213Z" fill="#054A97"/>
<path d="M41.903 39.4599H7.95305C7.79305 39.4599 7.64305 39.3699 7.56305 39.2299C7.48305 39.0899 7.49305 38.9199 7.57305 38.7799L11.853 31.8599C11.933 31.7299 12.073 31.6499 12.233 31.6499H37.623C37.773 31.6499 37.923 31.7299 38.003 31.8599L42.283 38.7799C42.363 38.9199 42.373 39.0899 42.293 39.2299C42.213 39.3699 42.063 39.4599 41.903 39.4599ZM8.74305 38.5799H41.113L37.383 32.5499H12.483L8.75305 38.5799H8.74305Z" fill="#054A97"/>
<path d="M41.9015 39.9601H7.95149C7.61149 39.9601 7.29149 39.7701 7.12149 39.4701C6.95149 39.1701 6.96149 38.8001 7.14149 38.5101L11.4215 31.5901C11.5915 31.3101 11.9015 31.1401 12.2315 31.1401H37.6215C37.9515 31.1401 38.2515 31.3101 38.4315 31.5901L42.7115 38.5101C42.8915 38.8001 42.9015 39.1701 42.7315 39.4701C42.5615 39.7701 42.2415 39.9601 41.9015 39.9601Z" fill="#054A97"/>
<path d="M24.9328 45.5901C22.5628 45.5901 20.6328 43.6601 20.6328 41.2901C20.6328 41.0501 20.8328 40.8501 21.0728 40.8501C21.3128 40.8501 21.5128 41.0501 21.5128 41.2901C21.5128 43.1701 23.0428 44.7001 24.9228 44.7001C26.8028 44.7001 28.3328 43.1701 28.3328 41.2901C28.3328 41.0501 28.5328 40.8501 28.7728 40.8501C29.0128 40.8501 29.2128 41.0501 29.2128 41.2901C29.2128 43.6601 27.2828 45.5901 24.9128 45.5901H24.9328Z" fill="#054A97"/>
<path d="M24.9328 46.1001C22.2828 46.1001 20.1328 43.9401 20.1328 41.3001C20.1328 40.7801 20.5628 40.3501 21.0828 40.3501C21.6028 40.3501 22.0328 40.7801 22.0328 41.3001C22.0328 42.9001 23.3328 44.2001 24.9328 44.2001C26.5328 44.2001 27.8328 42.9001 27.8328 41.3001C27.8328 40.7801 28.2628 40.3501 28.7828 40.3501C29.3028 40.3501 29.7328 40.7801 29.7328 41.3001C29.7328 43.9501 27.5728 46.1001 24.9228 46.1001H24.9328Z" fill="#054A97"/>
<path d="M24.9244 8.80977C24.6844 8.80977 24.4844 8.60977 24.4844 8.36977V3.94977C24.4844 3.70977 24.6844 3.50977 24.9244 3.50977C25.1644 3.50977 25.3644 3.70977 25.3644 3.94977V8.36977C25.3644 8.60977 25.1644 8.80977 24.9244 8.80977Z" fill="#054A97"/>
<path d="M24.9266 9.32C24.4066 9.32 23.9766 8.89 23.9766 8.37V3.95C23.9766 3.43 24.4066 3 24.9266 3C25.4466 3 25.8766 3.43 25.8766 3.95V8.37C25.8766 8.89 25.4466 9.32 24.9266 9.32Z" fill="#054A97"/>
</g>
<defs>
<clipPath id="clip0_14488_45317">
<rect width="35.85" height="43.1" fill="white" transform="translate(7 3)"/>
</clipPath>
</defs>
</svg>
