<svg width="50" height="50" viewBox="0 0 50 50" fill="none" xmlns="http://www.w3.org/2000/svg">
<path d="M7 23.8751C7 23.8751 17.6662 13.2096 24.5 6.37506C25 5.875 25 5.875 25.5 6.37506L43 23.8751" stroke="#054A97" stroke-width="1.91" stroke-linecap="round"/>
<path d="M11.5 27.4921L12.41 26.5821V41.375V41.875H12.91H19H19.5V41.375V30.875H31.41V41.375V41.875H31.91H38H38.5V41.375V26.5822L39.41 27.4922L39.4091 41.3751V41.3752C39.4091 41.7652 39.313 42.0244 39.1946 42.202C39.0741 42.3828 38.9099 42.5095 38.7305 42.5992C38.5491 42.6899 38.3616 42.7377 38.2153 42.7621C38.1433 42.7741 38.0844 42.7799 38.0455 42.7827C38.0261 42.7841 38.0119 42.7847 38.0039 42.785L37.9974 42.7852L37.9982 42.7852H37.9968L30.5 42.785V32.285V31.785H30H20.91H20.41V32.285V42.785H12.9125H12.9109L12.9116 42.785L12.9059 42.7848C12.8982 42.7846 12.8846 42.784 12.8658 42.7826C12.8281 42.7799 12.7708 42.7741 12.7006 42.7622C12.558 42.738 12.3742 42.6905 12.1951 42.6C12.018 42.5106 11.8531 42.3833 11.7296 42.2C11.6085 42.0201 11.5087 41.759 11.5 41.3696V27.4921Z" fill="white" stroke="#054A97"/>
</svg>
