<svg width="50" height="50" viewBox="0 0 50 50" fill="none" xmlns="http://www.w3.org/2000/svg">
<path d="M7 23.8751C7 23.8751 17.6662 13.2096 24.5 6.37506C25 5.875 25 5.875 25.5 6.37506L43 23.8751" stroke="#054A97" stroke-width="1.91" stroke-linecap="round"/>
<path d="M20.41 32.2848V42.7848H12.9125H12.9109L12.9116 42.7848L12.9059 42.7846C12.8982 42.7843 12.8846 42.7837 12.8658 42.7824C12.8281 42.7796 12.7708 42.7739 12.7006 42.762C12.558 42.7378 12.3742 42.6903 12.1951 42.5998C12.018 42.5103 11.8531 42.3831 11.7296 42.1998C11.6085 42.0199 11.5087 41.7588 11.5 41.3694V27.4918L25.011 13.9761L39.41 27.5013L39.4091 41.3749V41.3749C39.4091 41.7649 39.313 42.0242 39.1946 42.2018C39.0741 42.3825 38.9099 42.5093 38.7305 42.599C38.5491 42.6897 38.3616 42.7375 38.2153 42.7619C38.1433 42.7739 38.0844 42.7797 38.0455 42.7825C38.0261 42.7839 38.0119 42.7845 38.0039 42.7848L37.9974 42.7849L37.9982 42.7849H37.9968L30.5 42.7848V32.2848V31.7848H30H20.91H20.41V32.2848Z" fill="#054A97" stroke="#054A97"/>
</svg>
