<svg width="50" height="50" viewBox="0 0 50 50" fill="none" xmlns="http://www.w3.org/2000/svg">
<path d="M24.4948 21.9168C28.4528 21.9168 31.6615 18.7082 31.6615 14.7502C31.6615 10.7921 28.4528 7.5835 24.4948 7.5835C20.5368 7.5835 17.3281 10.7921 17.3281 14.7502C17.3281 18.7082 20.5368 21.9168 24.4948 21.9168Z" stroke="#054A97" stroke-width="1.91"/>
<path d="M38.8271 36.2503C38.8295 35.9565 38.8307 35.6579 38.8307 35.3545C38.8307 30.9022 32.413 27.292 24.4974 27.292C16.5818 27.292 10.1641 30.9022 10.1641 35.3545C10.1641 39.8068 10.1641 43.417 24.4974 43.417C28.4946 43.417 31.3774 43.1357 33.4557 42.634" stroke="#054A97" stroke-width="1.91" stroke-linecap="round"/>
</svg>
