<svg width="50" height="50" viewBox="0 0 50 50" fill="none" xmlns="http://www.w3.org/2000/svg">
<g clip-path="url(#clip0_14488_45323)">
<path d="M13.2526 20.5901C13.3526 20.1501 13.0726 19.7101 12.6326 19.6101C12.1926 19.5101 11.7526 19.7901 11.6526 20.2301C11.3226 21.6601 11.2826 23.1301 11.5126 24.5801C12.0026 27.5801 13.6226 30.2201 16.0926 32.0001C16.2326 32.1001 16.4026 32.1601 16.5726 32.1601C16.8326 32.1601 17.0826 32.0301 17.2326 31.8201C17.4926 31.4501 17.4126 30.9401 17.0426 30.6801C14.9326 29.1601 13.5426 26.9001 13.1226 24.3301C12.9226 23.0801 12.9626 21.8301 13.2426 20.6101L13.2526 20.5901Z" fill="#054A97"/>
<path d="M42.3308 40.8098L33.8408 32.4798C38.9708 26.6398 38.7108 17.7298 33.1008 12.2198C30.2908 9.4598 26.5508 7.9598 22.6208 7.9998C18.6708 8.0398 14.9808 9.6098 12.2208 12.4198C9.46078 15.2298 7.96078 18.9498 8.00078 22.8898C8.04078 26.8298 9.61078 30.5198 12.4208 33.2898C15.2008 36.0198 18.8708 37.5198 22.7608 37.5198H22.9008C26.5708 37.4798 30.0108 36.1098 32.6908 33.6498L41.1808 41.9798C41.3308 42.1298 41.5408 42.2098 41.7508 42.2098C41.9608 42.2098 42.1808 42.1198 42.3308 41.9598C42.4808 41.7998 42.5708 41.5998 42.5608 41.3798C42.5608 41.1598 42.4708 40.9598 42.3108 40.7998L42.3308 40.8098ZM22.7608 9.6298C26.2208 9.6298 29.4808 10.9598 31.9508 13.3898C37.1108 18.4598 37.1908 26.7798 32.1208 31.9498C29.6608 34.4498 26.3808 35.8498 22.8808 35.8798C19.3908 35.9198 16.0708 34.5798 13.5608 32.1198C11.0608 29.6698 9.66078 26.3798 9.63078 22.8798C9.60078 19.3798 10.9308 16.0698 13.3908 13.5698C15.8508 11.0698 19.1308 9.6698 22.6308 9.6398H22.7608V9.6298Z" fill="#054A97"/>
</g>
<defs>
<clipPath id="clip0_14488_45323">
<rect width="34.57" height="34.21" fill="white" transform="translate(8 8)"/>
</clipPath>
</defs>
</svg>
