<svg width="50" height="50" viewBox="0 0 50 50" fill="none" xmlns="http://www.w3.org/2000/svg">
<g clip-path="url(#clip0_14488_45321)">
<path fill-rule="evenodd" clip-rule="evenodd" d="M33.8408 32.4798L42.3308 40.8098L42.3108 40.7998C42.4708 40.9598 42.5608 41.1598 42.5608 41.3798C42.5708 41.5998 42.4808 41.7998 42.3308 41.9598C42.1808 42.1198 41.9608 42.2098 41.7508 42.2098C41.5408 42.2098 41.3308 42.1298 41.1808 41.9798L32.6908 33.6498C30.0108 36.1098 26.5708 37.4798 22.9008 37.5198H22.7608C18.8708 37.5198 15.2008 36.0198 12.4208 33.2898C9.61078 30.5198 8.04078 26.8298 8.00078 22.8898C7.96078 18.9498 9.46078 15.2298 12.2208 12.4198C14.9808 9.6098 18.6708 8.0398 22.6208 7.9998C26.5508 7.9598 30.2908 9.4598 33.1008 12.2198C38.7108 17.7298 38.9708 26.6398 33.8408 32.4798ZM12.6326 19.6101C13.0726 19.7101 13.3526 20.1501 13.2526 20.5901L13.2426 20.6101C12.9626 21.8301 12.9226 23.0801 13.1226 24.3301C13.5426 26.9001 14.9326 29.1601 17.0426 30.6801C17.4126 30.9401 17.4926 31.4501 17.2326 31.8201C17.0826 32.0301 16.8326 32.1601 16.5726 32.1601C16.4026 32.1601 16.2326 32.1001 16.0926 32.0001C13.6226 30.2201 12.0026 27.5801 11.5126 24.5801C11.2826 23.1301 11.3226 21.6601 11.6526 20.2301C11.7526 19.7901 12.1926 19.5101 12.6326 19.6101Z" fill="#054A97"/>
</g>
<defs>
<clipPath id="clip0_14488_45321">
<rect width="34.57" height="34.21" fill="white" transform="translate(8 8)"/>
</clipPath>
</defs>
</svg>
